<?xml version="1.0" standalone="no"?>
<!DOCTYPE svg PUBLIC "-//W3C//DTD SVG 20010904//EN"
 "http://www.w3.org/TR/2001/REC-SVG-20010904/DTD/svg10.dtd">
<svg version="1.0" xmlns="http://www.w3.org/2000/svg"
 width="128.000000pt" height="128.000000pt" viewBox="0 0 128.000000 128.000000"
 preserveAspectRatio="xMidYMid meet">
<metadata>
Created by potrace 1.14, written by Peter Selinger 2001-2017
</metadata>
<g transform="translate(0.000000,128.000000) scale(0.100000,-0.100000)"
fill="#000000" stroke="none">
<path d="M519 1189 c-168 -39 -319 -162 -392 -320 -46 -101 -60 -254 -33 -360
8 -31 16 -62 18 -70 2 -8 5 -16 8 -19 3 -3 15 -25 28 -50 12 -25 34 -59 47
-75 57 -68 83 -93 89 -88 3 4 6 2 6 -3 0 -6 22 -23 50 -39 27 -17 50 -34 50
-38 0 -5 4 -6 9 -2 10 6 61 -14 61 -24 0 -3 10 -7 23 -7 12 -1 38 -5 57 -8 48
-10 158 -10 200 -1 19 4 42 8 50 9 8 1 50 19 93 39 100 47 207 151 255 247 98
198 80 421 -49 595 -105 143 -252 218 -434 221 -55 1 -116 -2 -136 -7z"/>
</g>
</svg>
